<svg width="204" height="35" viewBox="0 0 204 35" fill="none" xmlns="http://www.w3.org/2000/svg">
<g clip-path="url(#clip0_2_59)">
<path d="M11.1569 25.3769C11.1569 26.8703 10.8206 27.9508 10.1481 28.619C9.49525 29.2674 8.40724 29.5916 6.88405 29.5916H5.28172C3.75853 29.5916 2.66064 29.2674 1.98805 28.619C1.33525 27.9508 1.00885 26.8703 1.00885 25.3769V12.7621H0.445068L0.860487 8.84214H5.04434V25.5242C5.04434 25.6224 5.0938 25.6716 5.1927 25.6716H6.97307C7.07197 25.6716 7.12143 25.6224 7.12143 25.5242V8.84214H11.1569V25.3769ZM12.7481 29.4737V12.7621H12.1843L12.5998 8.84214H16.7836L20.1663 20.0421V8.84214H24.2018V29.4737H20.1663L16.7836 18.2737V29.4737H12.7481ZM35.8131 25.259C35.8131 26.7524 35.4769 27.833 34.8042 28.5011C34.1514 29.1495 33.0634 29.4737 31.5402 29.4737H25.9618V12.7621H25.398L25.8134 8.84214H31.5402C33.0634 8.84214 34.1514 9.16635 34.8042 9.81477C35.4769 10.4632 35.8131 11.5439 35.8131 13.0569V25.259ZM31.6293 25.5537C31.7281 25.5537 31.7776 25.5045 31.7776 25.4063V12.9095C31.7776 12.8113 31.7281 12.7621 31.6293 12.7621H29.9972V25.5537H31.6293ZM37.263 29.4737V12.7621H36.6992L37.1146 8.84214H45.601L45.3636 12.7621H41.2985V17.1832H44.9482L44.7108 21.1032H41.2985V25.5537H45.601L45.3636 29.4737H37.263ZM47.1987 29.4737V12.7621H46.6349L47.0504 8.84214H52.4805C54.0036 8.84214 55.0917 9.17617 55.7445 9.84424C56.4169 10.4927 56.7533 11.5635 56.7533 13.0569V19.7769C56.7533 21.2898 56.4269 22.3706 55.7741 23.019L57.6138 29.4737H53.5784L52.0354 23.9916H51.2342V29.4737H47.1987ZM52.5695 12.7621H51.2342V20.0716H52.5695C52.6683 20.0716 52.7178 20.0224 52.7178 19.9242V12.9095C52.7178 12.8113 52.6683 12.7621 52.5695 12.7621ZM63.1549 21.1327L63.3922 17.2127H68.3772V25.3769C68.3772 26.8703 68.041 27.9508 67.3684 28.619C66.7156 29.2674 65.6277 29.5916 64.1044 29.5916H62.502C60.9789 29.5916 59.881 29.2674 59.2084 28.619C58.5556 27.9508 58.2292 26.8703 58.2292 25.3769V12.939C58.2292 11.426 58.5556 10.3453 59.2084 9.69687C59.881 9.04845 60.9789 8.72424 62.502 8.72424H64.1044C65.6277 8.72424 66.7156 9.04845 67.3684 9.69687C68.041 10.3453 68.3772 11.426 68.3772 12.939V15.8569L64.3418 15.4148V12.7916C64.3418 12.6934 64.2924 12.6442 64.1934 12.6442H62.413C62.3142 12.6442 62.2647 12.6934 62.2647 12.7916V25.5242C62.2647 25.6224 62.3142 25.6716 62.413 25.6716H64.1934C64.2924 25.6716 64.3418 25.6224 64.3418 25.5242V21.1327H63.1549ZM69.9748 29.4737V12.7621H69.411L69.8264 8.84214H75.2565C76.7796 8.84214 77.8677 9.17617 78.5205 9.84424C79.1931 10.4927 79.5294 11.5635 79.5294 13.0569V19.7769C79.5294 21.2898 79.203 22.3706 78.5502 23.019L80.3899 29.4737H76.3544L74.8114 23.9916H74.0103V29.4737H69.9748ZM75.3455 12.7621H74.0103V20.0716H75.3455C75.4444 20.0716 75.4939 20.0224 75.4939 19.9242V12.9095C75.4939 12.8113 75.4444 12.7621 75.3455 12.7621ZM90.7119 25.3769C90.7119 26.8703 90.3755 27.9508 89.703 28.619C89.0502 29.2674 87.9622 29.5916 86.439 29.5916H85.1334C83.6101 29.5916 82.5122 29.2674 81.8398 28.619C81.187 27.9508 80.8606 26.8703 80.8606 25.3769V12.939C80.8606 11.426 81.187 10.3453 81.8398 9.69687C82.5122 9.04845 83.6101 8.72424 85.1334 8.72424H86.439C87.9622 8.72424 89.0502 9.04845 89.703 9.69687C90.3755 10.3453 90.7119 11.426 90.7119 12.939V25.3769ZM85.0444 12.6442C84.9454 12.6442 84.8961 12.6934 84.8961 12.7916V25.5242C84.8961 25.6224 84.9454 25.6716 85.0444 25.6716H86.5281C86.6269 25.6716 86.6764 25.6224 86.6764 25.5242V12.7916C86.6764 12.6934 86.6269 12.6442 86.5281 12.6442H85.0444ZM102.609 25.3769C102.609 26.8703 102.273 27.9508 101.6 28.619C100.948 29.2674 99.8595 29.5916 98.3363 29.5916H96.734C95.2109 29.5916 94.113 29.2674 93.4403 28.619C92.7875 27.9508 92.4611 26.8703 92.4611 25.3769V12.7621H91.8973L92.3128 8.84214H96.4966V25.5242C96.4966 25.6224 96.5461 25.6716 96.645 25.6716H98.4253C98.5242 25.6716 98.5737 25.6224 98.5737 25.5242V8.84214H102.609V25.3769ZM104.2 29.4737V12.7621H103.637L104.052 8.84214H108.236L111.619 20.0421V8.84214H115.654V29.4737H111.619L108.236 18.2737V29.4737H104.2ZM127.265 25.259C127.265 26.7524 126.929 27.833 126.257 28.5011C125.604 29.1495 124.516 29.4737 122.993 29.4737H117.414V12.7621H116.85L117.266 8.84214H122.993C124.516 8.84214 125.604 9.16635 126.257 9.81477C126.929 10.4632 127.265 11.5439 127.265 13.0569V25.259ZM123.082 25.5537C123.18 25.5537 123.23 25.5045 123.23 25.4063V12.9095C123.23 12.8113 123.18 12.7621 123.082 12.7621H121.45V25.5537H123.082Z" fill="#0D1B2A"/>
<path d="M196.582 0.921021H142.8C139.215 0.921021 136.309 3.80761 136.309 7.36839V27.6315C136.309 31.1923 139.215 34.0789 142.8 34.0789H196.582C200.167 34.0789 203.073 31.1923 203.073 27.6315V7.36839C203.073 3.80761 200.167 0.921021 196.582 0.921021Z" stroke="#0D1B2A"/>
<path d="M144.294 10.3158H146.987V22.2968L147.676 23.2916H152.372V21.6779H155.065V25.7895H146.319L144.294 22.7389V10.3158ZM159.418 13.5653H166.851L168.409 15.8421V25.7895H165.716V25.06L164.492 25.7895H159.641L157.638 22.8274V21.6558L161.221 17.9421H165.716V16.0189H159.418V13.5653ZM160.42 22.341L160.842 23.2916H165.627V20.4621H162.222L160.42 22.2968V22.341ZM170.982 8.81262H173.675V14.3168L174.854 13.5874H179.728L181.753 16.5937V23.6453L179.683 25.7895H174.921L173.675 25.06V25.7895H170.982V8.81262ZM173.675 16.5495V23.2916H178.637L179.06 22.8495V17.0579L178.392 16.0853H174.12L173.675 16.5495ZM186.617 13.4547H193.116L194.629 15.6431L192.893 17.4337L191.825 15.8863H187.73L187.33 16.24V17.2568L187.953 18.1631H193.16L194.896 20.7274V23.8442L193.138 25.7895H185.727L184.526 23.9326L186.261 22.1642L187.04 23.2916H191.981L192.203 23.0484V21.2579L191.78 20.6389H186.573L184.66 17.7874V15.3558L186.617 13.4547Z" fill="#0D1B2A"/>
</g>
<defs>
<clipPath id="clip0_2_59">
<rect width="204" height="35" fill="white"/>
</clipPath>
</defs>
</svg>
